<svg xmlns="http://www.w3.org/2000/svg" xmlns:xlink="http://www.w3.org/1999/xlink" width="2000" zoomAndPan="magnify" viewBox="0 0 1500 1499.999933" height="2000" preserveAspectRatio="xMidYMid meet" version="1.0"><defs><g/><clipPath id="e72167821a"><rect x="0" width="480" y="0" height="116"/></clipPath><clipPath id="c74977b8a7"><path d="M 0.640625 0.0390625 L 1377.761719 0.0390625 L 1377.761719 637.960938 L 0.640625 637.960938 Z M 0.640625 0.0390625 " clip-rule="nonzero"/></clipPath><clipPath id="660f5f805e"><rect x="0" width="1378" y="0" height="638"/></clipPath><clipPath id="91b789cd32"><rect x="0" width="1378" y="0" height="638"/></clipPath></defs><g transform="matrix(1, 0, 0, 1, 62, 431)"><g clip-path="url(#91b789cd32)"><g transform="matrix(1, 0, 0, 1, 448, 521)"><g clip-path="url(#e72167821a)"><g fill="#e8dcc4" fill-opacity="1"><g transform="translate(0.930917, 90.256648)"><g><path d="M 79.34375 -66.046875 L 79.34375 0 L 72.640625 0 L 72.640625 -52.828125 L 46.703125 -8.390625 L 43.390625 -8.390625 L 17.453125 -52.546875 L 17.453125 0 L 10.75 0 L 10.75 -66.046875 L 16.515625 -66.046875 L 45.1875 -17.078125 L 73.59375 -66.046875 Z M 79.34375 -66.046875 "/></g></g></g><g fill="#e8dcc4" fill-opacity="1"><g transform="translate(91.027968, 90.256648)"><g><path d="M 54.0625 -49.625 L 54.0625 0 L 47.640625 0 L 47.640625 -9.0625 C 45.878906 -6.039062 43.457031 -3.695312 40.375 -2.03125 C 37.289062 -0.363281 33.769531 0.46875 29.8125 0.46875 C 23.332031 0.46875 18.222656 -1.335938 14.484375 -4.953125 C 10.742188 -8.566406 8.875 -13.863281 8.875 -20.84375 L 8.875 -49.625 L 15.5625 -49.625 L 15.5625 -21.515625 C 15.5625 -16.296875 16.847656 -12.332031 19.421875 -9.625 C 22.003906 -6.914062 25.6875 -5.5625 30.46875 -5.5625 C 35.6875 -5.5625 39.804688 -7.148438 42.828125 -10.328125 C 45.847656 -13.503906 47.359375 -17.921875 47.359375 -23.578125 L 47.359375 -49.625 Z M 54.0625 -49.625 "/></g></g></g><g fill="#e8dcc4" fill-opacity="1"><g transform="translate(154.52045, 90.256648)"><g><path d="M 22.640625 0.46875 C 18.617188 0.46875 14.765625 -0.109375 11.078125 -1.265625 C 7.398438 -2.429688 4.523438 -3.894531 2.453125 -5.65625 L 5.46875 -10.9375 C 7.539062 -9.300781 10.148438 -7.960938 13.296875 -6.921875 C 16.441406 -5.890625 19.710938 -5.375 23.109375 -5.375 C 27.640625 -5.375 30.988281 -6.082031 33.15625 -7.5 C 35.332031 -8.914062 36.421875 -10.910156 36.421875 -13.484375 C 36.421875 -15.316406 35.820312 -16.75 34.625 -17.78125 C 33.425781 -18.820312 31.914062 -19.609375 30.09375 -20.140625 C 28.269531 -20.671875 25.847656 -21.191406 22.828125 -21.703125 C 18.804688 -22.453125 15.566406 -23.21875 13.109375 -24 C 10.660156 -24.789062 8.570312 -26.128906 6.84375 -28.015625 C 5.113281 -29.898438 4.25 -32.507812 4.25 -35.84375 C 4.25 -40 5.976562 -43.394531 9.4375 -46.03125 C 12.894531 -48.675781 17.707031 -50 23.875 -50 C 27.082031 -50 30.285156 -49.570312 33.484375 -48.71875 C 36.691406 -47.875 39.335938 -46.757812 41.421875 -45.375 L 38.5 -40 C 34.40625 -42.832031 29.53125 -44.25 23.875 -44.25 C 19.59375 -44.25 16.363281 -43.492188 14.1875 -41.984375 C 12.019531 -40.472656 10.9375 -38.492188 10.9375 -36.046875 C 10.9375 -34.148438 11.550781 -32.632812 12.78125 -31.5 C 14.007812 -30.375 15.535156 -29.539062 17.359375 -29 C 19.179688 -28.46875 21.695312 -27.921875 24.90625 -27.359375 C 28.863281 -26.609375 32.035156 -25.851562 34.421875 -25.09375 C 36.816406 -24.34375 38.863281 -23.050781 40.5625 -21.21875 C 42.257812 -19.394531 43.109375 -16.882812 43.109375 -13.6875 C 43.109375 -9.34375 41.300781 -5.894531 37.6875 -3.34375 C 34.070312 -0.800781 29.054688 0.46875 22.640625 0.46875 Z M 22.640625 0.46875 "/></g></g></g><g fill="#e8dcc4" fill-opacity="1"><g transform="translate(200.653915, 90.256648)"><g><path d="M 9.34375 -49.625 L 16.03125 -49.625 L 16.03125 0 L 9.34375 0 Z M 12.75 -60.46875 C 11.363281 -60.46875 10.195312 -60.9375 9.25 -61.875 C 8.3125 -62.820312 7.84375 -63.957031 7.84375 -65.28125 C 7.84375 -66.539062 8.3125 -67.640625 9.25 -68.578125 C 10.195312 -69.523438 11.363281 -70 12.75 -70 C 14.125 -70 15.285156 -69.539062 16.234375 -68.625 C 17.179688 -67.71875 17.65625 -66.632812 17.65625 -65.375 C 17.65625 -63.988281 17.179688 -62.820312 16.234375 -61.875 C 15.285156 -60.9375 14.125 -60.46875 12.75 -60.46875 Z M 12.75 -60.46875 "/></g></g></g><g fill="#e8dcc4" fill-opacity="1"><g transform="translate(226.032035, 90.256648)"><g><path d="M 29.90625 0.46875 C 25 0.46875 20.609375 -0.597656 16.734375 -2.734375 C 12.867188 -4.867188 9.835938 -7.867188 7.640625 -11.734375 C 5.441406 -15.609375 4.34375 -19.96875 4.34375 -24.8125 C 4.34375 -29.65625 5.441406 -33.992188 7.640625 -37.828125 C 9.835938 -41.671875 12.867188 -44.660156 16.734375 -46.796875 C 20.609375 -48.929688 25 -50 29.90625 -50 C 34.1875 -50 38.007812 -49.164062 41.375 -47.5 C 44.738281 -45.832031 47.394531 -43.394531 49.34375 -40.1875 L 44.34375 -36.796875 C 42.707031 -39.242188 40.628906 -41.082031 38.109375 -42.3125 C 35.597656 -43.539062 32.863281 -44.15625 29.90625 -44.15625 C 26.320312 -44.15625 23.097656 -43.351562 20.234375 -41.75 C 17.367188 -40.144531 15.132812 -37.863281 13.53125 -34.90625 C 11.925781 -31.945312 11.125 -28.582031 11.125 -24.8125 C 11.125 -20.976562 11.925781 -17.597656 13.53125 -14.671875 C 15.132812 -11.742188 17.367188 -9.476562 20.234375 -7.875 C 23.097656 -6.269531 26.320312 -5.46875 29.90625 -5.46875 C 32.863281 -5.46875 35.597656 -6.066406 38.109375 -7.265625 C 40.628906 -8.460938 42.707031 -10.285156 44.34375 -12.734375 L 49.34375 -9.34375 C 47.394531 -6.132812 44.722656 -3.695312 41.328125 -2.03125 C 37.929688 -0.363281 34.125 0.46875 29.90625 0.46875 Z M 29.90625 0.46875 "/></g></g></g><g fill="#e8dcc4" fill-opacity="1"><g transform="translate(279.146845, 90.256648)"><g/></g></g><g fill="#e8dcc4" fill-opacity="1"><g transform="translate(303.864594, 90.256648)"><g><path d="M 10.75 -66.046875 L 17.734375 -66.046875 L 17.734375 -6.03125 L 54.71875 -6.03125 L 54.71875 0 L 10.75 0 Z M 10.75 -66.046875 "/></g></g></g><g fill="#e8dcc4" fill-opacity="1"><g transform="translate(359.432267, 90.256648)"><g><path d="M 26.703125 -50 C 33.179688 -50 38.148438 -48.378906 41.609375 -45.140625 C 45.066406 -41.898438 46.796875 -37.101562 46.796875 -30.75 L 46.796875 0 L 40.375 0 L 40.375 -7.734375 C 38.863281 -5.160156 36.644531 -3.148438 33.71875 -1.703125 C 30.800781 -0.253906 27.328125 0.46875 23.296875 0.46875 C 17.765625 0.46875 13.363281 -0.847656 10.09375 -3.484375 C 6.820312 -6.128906 5.1875 -9.625 5.1875 -13.96875 C 5.1875 -18.175781 6.710938 -21.566406 9.765625 -24.140625 C 12.816406 -26.722656 17.675781 -28.015625 24.34375 -28.015625 L 40.09375 -28.015625 L 40.09375 -31.046875 C 40.09375 -35.316406 38.894531 -38.566406 36.5 -40.796875 C 34.113281 -43.035156 30.625 -44.15625 26.03125 -44.15625 C 22.894531 -44.15625 19.878906 -43.632812 16.984375 -42.59375 C 14.085938 -41.5625 11.601562 -40.128906 9.53125 -38.296875 L 6.515625 -43.296875 C 9.023438 -45.441406 12.039062 -47.09375 15.5625 -48.25 C 19.082031 -49.414062 22.796875 -50 26.703125 -50 Z M 24.34375 -4.8125 C 28.113281 -4.8125 31.347656 -5.675781 34.046875 -7.40625 C 36.753906 -9.132812 38.769531 -11.632812 40.09375 -14.90625 L 40.09375 -23.015625 L 24.53125 -23.015625 C 16.039062 -23.015625 11.796875 -20.0625 11.796875 -14.15625 C 11.796875 -11.257812 12.894531 -8.976562 15.09375 -7.3125 C 17.289062 -5.644531 20.375 -4.8125 24.34375 -4.8125 Z M 24.34375 -4.8125 "/></g></g></g><g fill="#e8dcc4" fill-opacity="1"><g transform="translate(415.094339, 90.256648)"><g><path d="M 34.90625 -50 C 39.5625 -50 43.773438 -48.945312 47.546875 -46.84375 C 51.316406 -44.738281 54.269531 -41.765625 56.40625 -37.921875 C 58.550781 -34.085938 59.625 -29.71875 59.625 -24.8125 C 59.625 -19.90625 58.550781 -15.53125 56.40625 -11.6875 C 54.269531 -7.851562 51.316406 -4.867188 47.546875 -2.734375 C 43.773438 -0.597656 39.5625 0.46875 34.90625 0.46875 C 30.757812 0.46875 27.035156 -0.410156 23.734375 -2.171875 C 20.429688 -3.929688 17.769531 -6.476562 15.75 -9.8125 L 15.75 0 L 9.34375 0 L 9.34375 -70 L 16.03125 -70 L 16.03125 -40.1875 C 18.113281 -43.394531 20.773438 -45.832031 24.015625 -47.5 C 27.253906 -49.164062 30.882812 -50 34.90625 -50 Z M 34.4375 -5.46875 C 37.894531 -5.46875 41.035156 -6.269531 43.859375 -7.875 C 46.691406 -9.476562 48.910156 -11.757812 50.515625 -14.71875 C 52.117188 -17.675781 52.921875 -21.039062 52.921875 -24.8125 C 52.921875 -28.582031 52.117188 -31.945312 50.515625 -34.90625 C 48.910156 -37.863281 46.691406 -40.144531 43.859375 -41.75 C 41.035156 -43.351562 37.894531 -44.15625 34.4375 -44.15625 C 30.914062 -44.15625 27.753906 -43.351562 24.953125 -41.75 C 22.148438 -40.144531 19.945312 -37.863281 18.34375 -34.90625 C 16.738281 -31.945312 15.9375 -28.582031 15.9375 -24.8125 C 15.9375 -21.039062 16.738281 -17.675781 18.34375 -14.71875 C 19.945312 -11.757812 22.148438 -9.476562 24.953125 -7.875 C 27.753906 -6.269531 30.914062 -5.46875 34.4375 -5.46875 Z M 34.4375 -5.46875 "/></g></g></g></g></g><g clip-path="url(#c74977b8a7)"><g transform="matrix(1, 0, 0, 1, 0.000000000000007105, 0.000000000000113687)"><g clip-path="url(#660f5f805e)"><g fill="#e8dcc4" fill-opacity="1"><g transform="translate(9.446756, 485.50534)"><g><path d="M 378.3125 -6.328125 C 380.0625 -6.328125 380.9375 -5.269531 380.9375 -3.15625 C 380.9375 -1.050781 380.0625 0 378.3125 0 C 371.269531 0 360.363281 -0.351562 345.59375 -1.0625 C 330.113281 -1.757812 319.035156 -2.109375 312.359375 -2.109375 C 303.554688 -2.109375 292.828125 -1.757812 280.171875 -1.0625 C 268.210938 -0.351562 258.710938 0 251.671875 0 C 250.265625 0 249.5625 -1.050781 249.5625 -3.15625 C 249.5625 -5.269531 250.265625 -6.328125 251.671875 -6.328125 C 260.816406 -6.328125 267.410156 -7.296875 271.453125 -9.234375 C 275.503906 -11.171875 277.53125 -14.597656 277.53125 -19.515625 C 277.53125 -25.492188 274.015625 -35.519531 266.984375 -49.59375 L 231.09375 -120.828125 L 101.296875 -120.828125 L 80.734375 -74.921875 C 76.160156 -64.722656 73.875 -55.226562 73.875 -46.4375 C 73.875 -33.769531 78.359375 -23.914062 87.328125 -16.875 C 96.296875 -9.84375 108.34375 -6.328125 123.46875 -6.328125 C 125.226562 -6.328125 126.109375 -5.269531 126.109375 -3.15625 C 126.109375 -1.050781 125.226562 0 123.46875 0 C 117.132812 0 107.988281 -0.351562 96.03125 -1.0625 C 82.664062 -1.757812 71.054688 -2.109375 61.203125 -2.109375 C 51.703125 -2.109375 40.269531 -1.757812 26.90625 -1.0625 C 14.945312 -0.351562 5.273438 0 -2.109375 0 C -3.515625 0 -4.21875 -1.050781 -4.21875 -3.15625 C -4.21875 -5.269531 -3.515625 -6.328125 -2.109375 -6.328125 C 7.734375 -6.328125 16 -8.347656 22.6875 -12.390625 C 29.375 -16.441406 36.054688 -23.65625 42.734375 -34.03125 C 49.421875 -44.40625 57.335938 -59.796875 66.484375 -80.203125 L 180.96875 -331.875 C 181.675781 -332.925781 183.257812 -333.453125 185.71875 -333.453125 C 188.53125 -333.453125 190.113281 -332.925781 190.46875 -331.875 L 322.375 -72.28125 C 334.6875 -47.3125 344.882812 -30.078125 352.96875 -20.578125 C 361.0625 -11.078125 369.507812 -6.328125 378.3125 -6.328125 Z M 108.15625 -135.59375 L 223.1875 -135.59375 L 162.515625 -255.890625 Z M 108.15625 -135.59375 "/></g></g></g><g fill="#e8dcc4" fill-opacity="1"><g transform="translate(387.230451, 485.50534)"><g><path d="M 112.390625 -44.84375 C 112.390625 -35.695312 113.09375 -29.101562 114.5 -25.0625 C 115.90625 -21.019531 118.628906 -18.296875 122.671875 -16.890625 C 126.710938 -15.484375 133.304688 -14.78125 142.453125 -14.78125 L 160.390625 -14.78125 C 187.828125 -14.78125 211.570312 -22.078125 231.625 -36.671875 C 251.675781 -51.265625 265.046875 -71.050781 271.734375 -96.03125 C 271.734375 -96.726562 272.4375 -97.078125 273.84375 -97.078125 C 274.539062 -97.078125 275.328125 -96.8125 276.203125 -96.28125 C 277.085938 -95.757812 277.53125 -95.320312 277.53125 -94.96875 C 274.363281 -60.144531 272.78125 -31.128906 272.78125 -7.921875 C 272.78125 -5.097656 272.164062 -3.070312 270.9375 -1.84375 C 269.707031 -0.613281 267.6875 0 264.875 0 L 15.828125 0 C 15.128906 0 14.78125 -1.050781 14.78125 -3.15625 C 14.78125 -5.269531 15.128906 -6.328125 15.828125 -6.328125 C 27.085938 -6.328125 35.265625 -7.207031 40.359375 -8.96875 C 45.460938 -10.726562 48.976562 -14.15625 50.90625 -19.25 C 52.84375 -24.351562 53.8125 -32.179688 53.8125 -42.734375 L 53.8125 -287.03125 C 53.8125 -297.582031 52.84375 -305.316406 50.90625 -310.234375 C 48.976562 -315.160156 45.375 -318.59375 40.09375 -320.53125 C 34.820312 -322.46875 26.734375 -323.4375 15.828125 -323.4375 C 15.128906 -323.4375 14.78125 -324.488281 14.78125 -326.59375 C 14.78125 -328.707031 15.128906 -329.765625 15.828125 -329.765625 L 42.734375 -329.234375 C 58.921875 -328.535156 72.289062 -328.1875 82.84375 -328.1875 C 93.394531 -328.1875 106.757812 -328.535156 122.9375 -329.234375 L 149.84375 -329.765625 C 150.894531 -329.765625 151.421875 -328.707031 151.421875 -326.59375 C 151.421875 -324.488281 150.894531 -323.4375 149.84375 -323.4375 C 138.9375 -323.4375 130.84375 -322.46875 125.5625 -320.53125 C 120.289062 -318.59375 116.773438 -315.070312 115.015625 -309.96875 C 113.265625 -304.875 112.390625 -297.050781 112.390625 -286.5 Z M 112.390625 -44.84375 "/></g></g></g><g fill="#e8dcc4" fill-opacity="1"><g transform="translate(674.789231, 485.50534)"><g><path d="M 189.9375 -185.203125 C 219.488281 -181.679688 242.96875 -171.828125 260.375 -155.640625 C 277.789062 -139.460938 286.5 -119.414062 286.5 -95.5 C 286.5 -77.207031 281.222656 -60.675781 270.671875 -45.90625 C 260.117188 -31.132812 245.519531 -19.4375 226.875 -10.8125 C 208.238281 -2.195312 187.488281 2.109375 164.625 2.109375 C 154.769531 2.109375 143.507812 1.582031 130.84375 0.53125 C 125.925781 0.175781 119.859375 -0.175781 112.640625 -0.53125 C 105.429688 -0.882812 97.429688 -1.0625 88.640625 -1.0625 L 50.125 -0.53125 C 43.09375 -0.175781 33.59375 0 21.625 0 C 20.570312 0 20.046875 -1.050781 20.046875 -3.15625 C 20.046875 -5.269531 20.570312 -6.328125 21.625 -6.328125 C 31.832031 -6.328125 39.570312 -7.296875 44.84375 -9.234375 C 50.125 -11.171875 53.90625 -14.6875 56.1875 -19.78125 C 58.476562 -24.882812 59.625 -32.535156 59.625 -42.734375 L 59.625 -287.03125 C 59.625 -301.800781 57.160156 -311.5625 52.234375 -316.3125 C 47.304688 -321.0625 37.28125 -323.4375 22.15625 -323.4375 C 21.457031 -323.4375 21.109375 -324.488281 21.109375 -326.59375 C 21.109375 -328.707031 21.457031 -329.765625 22.15625 -329.765625 L 50.125 -329.234375 C 66.300781 -328.535156 79.140625 -328.1875 88.640625 -328.1875 C 98.492188 -328.1875 108.695312 -328.710938 119.25 -329.765625 C 122.757812 -330.117188 128.03125 -330.46875 135.0625 -330.8125 C 142.101562 -331.164062 148.257812 -331.34375 153.53125 -331.34375 C 185.539062 -331.34375 210.335938 -325.539062 227.921875 -313.9375 C 245.515625 -302.332031 254.3125 -285.445312 254.3125 -263.28125 C 254.3125 -246.394531 248.769531 -231.09375 237.6875 -217.375 C 226.613281 -203.65625 210.695312 -192.929688 189.9375 -185.203125 Z M 145.625 -319.734375 C 135.425781 -319.734375 128.390625 -317.359375 124.515625 -312.609375 C 120.648438 -307.867188 118.71875 -298.988281 118.71875 -285.96875 L 118.71875 -185.71875 L 139.828125 -185.203125 C 158.109375 -185.203125 172.171875 -192.054688 182.015625 -205.765625 C 191.867188 -219.484375 196.796875 -237.070312 196.796875 -258.53125 C 196.796875 -278.582031 192.398438 -293.796875 183.609375 -304.171875 C 174.816406 -314.546875 162.15625 -319.734375 145.625 -319.734375 Z M 155.65625 -11.078125 C 201.726562 -11.078125 224.765625 -35 224.765625 -82.84375 C 224.765625 -109.925781 218.253906 -131.378906 205.234375 -147.203125 C 192.222656 -163.035156 172.53125 -170.953125 146.15625 -170.953125 C 135.945312 -170.953125 126.800781 -170.597656 118.71875 -169.890625 L 118.71875 -42.734375 C 118.71875 -31.128906 121.003906 -22.953125 125.578125 -18.203125 C 130.148438 -13.453125 140.175781 -11.078125 155.65625 -11.078125 Z M 155.65625 -11.078125 "/></g></g></g><g fill="#e8dcc4" fill-opacity="1"><g transform="translate(988.729627, 485.50534)"><g><path d="M 378.3125 -6.328125 C 380.0625 -6.328125 380.9375 -5.269531 380.9375 -3.15625 C 380.9375 -1.050781 380.0625 0 378.3125 0 C 371.269531 0 360.363281 -0.351562 345.59375 -1.0625 C 330.113281 -1.757812 319.035156 -2.109375 312.359375 -2.109375 C 303.554688 -2.109375 292.828125 -1.757812 280.171875 -1.0625 C 268.210938 -0.351562 258.710938 0 251.671875 0 C 250.265625 0 249.5625 -1.050781 249.5625 -3.15625 C 249.5625 -5.269531 250.265625 -6.328125 251.671875 -6.328125 C 260.816406 -6.328125 267.410156 -7.296875 271.453125 -9.234375 C 275.503906 -11.171875 277.53125 -14.597656 277.53125 -19.515625 C 277.53125 -25.492188 274.015625 -35.519531 266.984375 -49.59375 L 231.09375 -120.828125 L 101.296875 -120.828125 L 80.734375 -74.921875 C 76.160156 -64.722656 73.875 -55.226562 73.875 -46.4375 C 73.875 -33.769531 78.359375 -23.914062 87.328125 -16.875 C 96.296875 -9.84375 108.34375 -6.328125 123.46875 -6.328125 C 125.226562 -6.328125 126.109375 -5.269531 126.109375 -3.15625 C 126.109375 -1.050781 125.226562 0 123.46875 0 C 117.132812 0 107.988281 -0.351562 96.03125 -1.0625 C 82.664062 -1.757812 71.054688 -2.109375 61.203125 -2.109375 C 51.703125 -2.109375 40.269531 -1.757812 26.90625 -1.0625 C 14.945312 -0.351562 5.273438 0 -2.109375 0 C -3.515625 0 -4.21875 -1.050781 -4.21875 -3.15625 C -4.21875 -5.269531 -3.515625 -6.328125 -2.109375 -6.328125 C 7.734375 -6.328125 16 -8.347656 22.6875 -12.390625 C 29.375 -16.441406 36.054688 -23.65625 42.734375 -34.03125 C 49.421875 -44.40625 57.335938 -59.796875 66.484375 -80.203125 L 180.96875 -331.875 C 181.675781 -332.925781 183.257812 -333.453125 185.71875 -333.453125 C 188.53125 -333.453125 190.113281 -332.925781 190.46875 -331.875 L 322.375 -72.28125 C 334.6875 -47.3125 344.882812 -30.078125 352.96875 -20.578125 C 361.0625 -11.078125 369.507812 -6.328125 378.3125 -6.328125 Z M 108.15625 -135.59375 L 223.1875 -135.59375 L 162.515625 -255.890625 Z M 108.15625 -135.59375 "/></g></g></g></g></g></g></g></g></svg>