<svg xmlns="http://www.w3.org/2000/svg" xmlns:xlink="http://www.w3.org/1999/xlink" width="2000" zoomAndPan="magnify" viewBox="0 0 1500 1499.999933" height="2000" preserveAspectRatio="xMidYMid meet" version="1.0"><defs><g/><clipPath id="77392fe62f"><path d="M 0.398438 0.601562 L 1426 0.601562 L 1426 662 L 0.398438 662 Z M 0.398438 0.601562 " clip-rule="nonzero"/></clipPath><clipPath id="471dc8ff7a"><rect x="0" width="1426" y="0" height="662"/></clipPath><clipPath id="978da8b173"><path d="M 406 529 L 998 529 L 998 670.679688 L 406 670.679688 Z M 406 529 " clip-rule="nonzero"/></clipPath><clipPath id="2faa7dda6d"><rect x="0" width="592" y="0" height="142"/></clipPath><clipPath id="ce56e50eed"><rect x="0" width="1426" y="0" height="671"/></clipPath></defs><g transform="matrix(1, 0, 0, 1, 38, 351)"><g clip-path="url(#ce56e50eed)"><g clip-path="url(#77392fe62f)"><g transform="matrix(1, 0, 0, 1, 0, 0.000000000000113687)"><g clip-path="url(#471dc8ff7a)"><g fill="#e8dcc4" fill-opacity="1"><g transform="translate(9.440375, 503.35594)"><g><path d="M 391.6875 -6.5625 C 393.507812 -6.5625 394.421875 -5.46875 394.421875 -3.28125 C 394.421875 -1.09375 393.507812 0 391.6875 0 C 384.40625 0 373.117188 -0.363281 357.828125 -1.09375 C 341.796875 -1.820312 330.320312 -2.1875 323.40625 -2.1875 C 314.300781 -2.1875 303.191406 -1.820312 290.078125 -1.09375 C 277.703125 -0.363281 267.867188 0 260.578125 0 C 259.117188 0 258.390625 -1.09375 258.390625 -3.28125 C 258.390625 -5.46875 259.117188 -6.5625 260.578125 -6.5625 C 270.046875 -6.5625 276.875 -7.5625 281.0625 -9.5625 C 285.257812 -11.5625 287.359375 -15.113281 287.359375 -20.21875 C 287.359375 -26.40625 283.710938 -36.785156 276.421875 -51.359375 L 239.28125 -125.109375 L 104.890625 -125.109375 L 83.578125 -77.578125 C 78.847656 -67.015625 76.484375 -57.179688 76.484375 -48.078125 C 76.484375 -34.960938 81.125 -24.765625 90.40625 -17.484375 C 99.695312 -10.203125 112.171875 -6.5625 127.828125 -6.5625 C 129.648438 -6.5625 130.5625 -5.46875 130.5625 -3.28125 C 130.5625 -1.09375 129.648438 0 127.828125 0 C 121.273438 0 111.804688 -0.363281 99.421875 -1.09375 C 85.585938 -1.820312 73.570312 -2.1875 63.375 -2.1875 C 53.539062 -2.1875 41.703125 -1.820312 27.859375 -1.09375 C 15.472656 -0.363281 5.457031 0 -2.1875 0 C -3.644531 0 -4.375 -1.09375 -4.375 -3.28125 C -4.375 -5.46875 -3.644531 -6.5625 -2.1875 -6.5625 C 8.007812 -6.5625 16.566406 -8.65625 23.484375 -12.84375 C 30.410156 -17.03125 37.332031 -24.492188 44.25 -35.234375 C 51.164062 -45.984375 59.359375 -61.914062 68.828125 -83.03125 L 187.375 -343.625 C 188.101562 -344.71875 189.742188 -345.265625 192.296875 -345.265625 C 195.210938 -345.265625 196.851562 -344.71875 197.21875 -343.625 L 333.78125 -74.84375 C 346.53125 -48.988281 357.09375 -31.144531 365.46875 -21.3125 C 373.84375 -11.476562 382.582031 -6.5625 391.6875 -6.5625 Z M 111.984375 -140.390625 L 231.078125 -140.390625 L 168.265625 -264.953125 Z M 111.984375 -140.390625 "/></g></g></g><g fill="#e8dcc4" fill-opacity="1"><g transform="translate(400.589587, 503.35594)"><g><path d="M 116.359375 -46.4375 C 116.359375 -36.96875 117.085938 -30.140625 118.546875 -25.953125 C 120.003906 -21.765625 122.828125 -18.941406 127.015625 -17.484375 C 131.203125 -16.023438 138.03125 -15.296875 147.5 -15.296875 L 166.078125 -15.296875 C 194.484375 -15.296875 219.066406 -22.851562 239.828125 -37.96875 C 260.585938 -53.082031 274.425781 -73.566406 281.34375 -99.421875 C 281.34375 -100.148438 282.070312 -100.515625 283.53125 -100.515625 C 284.257812 -100.515625 285.078125 -100.238281 285.984375 -99.6875 C 286.898438 -99.144531 287.359375 -98.691406 287.359375 -98.328125 C 284.078125 -62.273438 282.4375 -32.226562 282.4375 -8.1875 C 282.4375 -5.28125 281.796875 -3.1875 280.515625 -1.90625 C 279.242188 -0.632812 277.148438 0 274.234375 0 L 16.390625 0 C 15.660156 0 15.296875 -1.09375 15.296875 -3.28125 C 15.296875 -5.46875 15.660156 -6.5625 16.390625 -6.5625 C 28.046875 -6.5625 36.515625 -7.46875 41.796875 -9.28125 C 47.078125 -11.101562 50.71875 -14.65625 52.71875 -19.9375 C 54.71875 -25.21875 55.71875 -33.320312 55.71875 -44.25 L 55.71875 -297.1875 C 55.71875 -308.113281 54.71875 -316.125 52.71875 -321.21875 C 50.71875 -326.320312 46.984375 -329.875 41.515625 -331.875 C 36.054688 -333.875 27.679688 -334.875 16.390625 -334.875 C 15.660156 -334.875 15.296875 -335.96875 15.296875 -338.15625 C 15.296875 -340.34375 15.660156 -341.4375 16.390625 -341.4375 L 44.25 -340.890625 C 61 -340.160156 74.835938 -339.796875 85.765625 -339.796875 C 96.691406 -339.796875 110.53125 -340.160156 127.28125 -340.890625 L 155.140625 -341.4375 C 156.234375 -341.4375 156.78125 -340.34375 156.78125 -338.15625 C 156.78125 -335.96875 156.234375 -334.875 155.140625 -334.875 C 143.859375 -334.875 135.484375 -333.875 130.015625 -331.875 C 124.554688 -329.875 120.914062 -326.234375 119.09375 -320.953125 C 117.269531 -315.671875 116.359375 -307.566406 116.359375 -296.640625 Z M 116.359375 -46.4375 "/></g></g></g><g fill="#e8dcc4" fill-opacity="1"><g transform="translate(698.321839, 503.35594)"><g><path d="M 196.671875 -191.75 C 227.265625 -188.101562 251.570312 -177.90625 269.59375 -161.15625 C 287.625 -144.40625 296.640625 -123.644531 296.640625 -98.875 C 296.640625 -79.9375 291.175781 -62.816406 280.25 -47.515625 C 269.320312 -32.222656 254.207031 -20.113281 234.90625 -11.1875 C 215.601562 -2.269531 194.113281 2.1875 170.4375 2.1875 C 160.238281 2.1875 148.585938 1.640625 135.484375 0.546875 C 130.378906 0.179688 124.09375 -0.179688 116.625 -0.546875 C 109.164062 -0.910156 100.882812 -1.09375 91.78125 -1.09375 L 51.890625 -0.546875 C 44.609375 -0.179688 34.773438 0 22.390625 0 C 21.304688 0 20.765625 -1.09375 20.765625 -3.28125 C 20.765625 -5.46875 21.304688 -6.5625 22.390625 -6.5625 C 32.953125 -6.5625 40.960938 -7.5625 46.421875 -9.5625 C 51.890625 -11.5625 55.804688 -15.203125 58.171875 -20.484375 C 60.546875 -25.765625 61.734375 -33.6875 61.734375 -44.25 L 61.734375 -297.1875 C 61.734375 -312.476562 59.179688 -322.582031 54.078125 -327.5 C 48.984375 -332.414062 38.601562 -334.875 22.9375 -334.875 C 22.21875 -334.875 21.859375 -335.96875 21.859375 -338.15625 C 21.859375 -340.34375 22.21875 -341.4375 22.9375 -341.4375 L 51.890625 -340.890625 C 68.648438 -340.160156 81.945312 -339.796875 91.78125 -339.796875 C 101.976562 -339.796875 112.539062 -340.34375 123.46875 -341.4375 C 127.101562 -341.800781 132.5625 -342.164062 139.84375 -342.53125 C 147.132812 -342.894531 153.507812 -343.078125 158.96875 -343.078125 C 192.113281 -343.078125 217.789062 -337.066406 236 -325.046875 C 254.207031 -313.023438 263.3125 -295.546875 263.3125 -272.609375 C 263.3125 -255.117188 257.570312 -239.269531 246.09375 -225.0625 C 234.625 -210.863281 218.148438 -199.757812 196.671875 -191.75 Z M 150.78125 -331.0625 C 140.21875 -331.0625 132.929688 -328.601562 128.921875 -323.6875 C 124.921875 -318.769531 122.921875 -309.570312 122.921875 -296.09375 L 122.921875 -192.296875 L 144.765625 -191.75 C 163.703125 -191.75 178.269531 -198.847656 188.46875 -213.046875 C 198.664062 -227.253906 203.765625 -245.46875 203.765625 -267.6875 C 203.765625 -288.445312 199.210938 -304.195312 190.109375 -314.9375 C 181.003906 -325.6875 167.894531 -331.0625 150.78125 -331.0625 Z M 161.15625 -11.46875 C 208.863281 -11.46875 232.71875 -36.234375 232.71875 -85.765625 C 232.71875 -113.804688 225.976562 -136.019531 212.5 -152.40625 C 199.03125 -168.800781 178.640625 -177 151.328125 -177 C 140.765625 -177 131.296875 -176.632812 122.921875 -175.90625 L 122.921875 -44.25 C 122.921875 -32.226562 125.285156 -23.757812 130.015625 -18.84375 C 134.753906 -13.925781 145.132812 -11.46875 161.15625 -11.46875 Z M 161.15625 -11.46875 "/></g></g></g><g fill="#e8dcc4" fill-opacity="1"><g transform="translate(1023.369055, 503.35594)"><g><path d="M 391.6875 -6.5625 C 393.507812 -6.5625 394.421875 -5.46875 394.421875 -3.28125 C 394.421875 -1.09375 393.507812 0 391.6875 0 C 384.40625 0 373.117188 -0.363281 357.828125 -1.09375 C 341.796875 -1.820312 330.320312 -2.1875 323.40625 -2.1875 C 314.300781 -2.1875 303.191406 -1.820312 290.078125 -1.09375 C 277.703125 -0.363281 267.867188 0 260.578125 0 C 259.117188 0 258.390625 -1.09375 258.390625 -3.28125 C 258.390625 -5.46875 259.117188 -6.5625 260.578125 -6.5625 C 270.046875 -6.5625 276.875 -7.5625 281.0625 -9.5625 C 285.257812 -11.5625 287.359375 -15.113281 287.359375 -20.21875 C 287.359375 -26.40625 283.710938 -36.785156 276.421875 -51.359375 L 239.28125 -125.109375 L 104.890625 -125.109375 L 83.578125 -77.578125 C 78.847656 -67.015625 76.484375 -57.179688 76.484375 -48.078125 C 76.484375 -34.960938 81.125 -24.765625 90.40625 -17.484375 C 99.695312 -10.203125 112.171875 -6.5625 127.828125 -6.5625 C 129.648438 -6.5625 130.5625 -5.46875 130.5625 -3.28125 C 130.5625 -1.09375 129.648438 0 127.828125 0 C 121.273438 0 111.804688 -0.363281 99.421875 -1.09375 C 85.585938 -1.820312 73.570312 -2.1875 63.375 -2.1875 C 53.539062 -2.1875 41.703125 -1.820312 27.859375 -1.09375 C 15.472656 -0.363281 5.457031 0 -2.1875 0 C -3.644531 0 -4.375 -1.09375 -4.375 -3.28125 C -4.375 -5.46875 -3.644531 -6.5625 -2.1875 -6.5625 C 8.007812 -6.5625 16.566406 -8.65625 23.484375 -12.84375 C 30.410156 -17.03125 37.332031 -24.492188 44.25 -35.234375 C 51.164062 -45.984375 59.359375 -61.914062 68.828125 -83.03125 L 187.375 -343.625 C 188.101562 -344.71875 189.742188 -345.265625 192.296875 -345.265625 C 195.210938 -345.265625 196.851562 -344.71875 197.21875 -343.625 L 333.78125 -74.84375 C 346.53125 -48.988281 357.09375 -31.144531 365.46875 -21.3125 C 373.84375 -11.476562 382.582031 -6.5625 391.6875 -6.5625 Z M 111.984375 -140.390625 L 231.078125 -140.390625 L 168.265625 -264.953125 Z M 111.984375 -140.390625 "/></g></g></g></g></g></g><g clip-path="url(#978da8b173)"><g transform="matrix(1, 0, 0, 1, 406, 529)"><g clip-path="url(#2faa7dda6d)"><g fill="#e8dcc4" fill-opacity="1"><g transform="translate(1.863342, 110.976271)"><g><path d="M 97.84375 -81.4375 L 97.84375 0 L 89.578125 0 L 89.578125 -65.15625 L 57.59375 -10.359375 L 53.515625 -10.359375 L 21.53125 -64.796875 L 21.53125 0 L 13.265625 0 L 13.265625 -81.4375 L 20.359375 -81.4375 L 55.734375 -21.0625 L 90.75 -81.4375 Z M 97.84375 -81.4375 "/></g></g></g><g fill="#e8dcc4" fill-opacity="1"><g transform="translate(112.970358, 110.976271)"><g><path d="M 66.671875 -61.203125 L 66.671875 0 L 58.75 0 L 58.75 -11.171875 C 56.582031 -7.441406 53.597656 -4.550781 49.796875 -2.5 C 45.992188 -0.445312 41.648438 0.578125 36.765625 0.578125 C 28.773438 0.578125 22.472656 -1.648438 17.859375 -6.109375 C 13.242188 -10.566406 10.9375 -17.101562 10.9375 -25.71875 L 10.9375 -61.203125 L 19.203125 -61.203125 L 19.203125 -26.53125 C 19.203125 -20.09375 20.789062 -15.203125 23.96875 -11.859375 C 27.144531 -8.523438 31.679688 -6.859375 37.578125 -6.859375 C 44.015625 -6.859375 49.09375 -8.816406 52.8125 -12.734375 C 56.539062 -16.648438 58.40625 -22.097656 58.40625 -29.078125 L 58.40625 -61.203125 Z M 66.671875 -61.203125 "/></g></g></g><g fill="#e8dcc4" fill-opacity="1"><g transform="translate(191.268817, 110.976271)"><g><path d="M 27.921875 0.578125 C 22.953125 0.578125 18.195312 -0.132812 13.65625 -1.5625 C 9.125 -3 5.582031 -4.804688 3.03125 -6.984375 L 6.75 -13.5 C 9.3125 -11.476562 12.53125 -9.828125 16.40625 -8.546875 C 20.28125 -7.265625 24.3125 -6.625 28.5 -6.625 C 34.082031 -6.625 38.210938 -7.492188 40.890625 -9.234375 C 43.566406 -10.984375 44.90625 -13.453125 44.90625 -16.640625 C 44.90625 -18.890625 44.164062 -20.648438 42.6875 -21.921875 C 41.21875 -23.203125 39.359375 -24.171875 37.109375 -24.828125 C 34.859375 -25.492188 31.875 -26.140625 28.15625 -26.765625 C 23.1875 -27.691406 19.191406 -28.640625 16.171875 -29.609375 C 13.148438 -30.578125 10.570312 -32.222656 8.4375 -34.546875 C 6.300781 -36.878906 5.234375 -40.097656 5.234375 -44.203125 C 5.234375 -49.328125 7.363281 -53.515625 11.625 -56.765625 C 15.894531 -60.023438 21.832031 -61.65625 29.4375 -61.65625 C 33.394531 -61.65625 37.347656 -61.128906 41.296875 -60.078125 C 45.253906 -59.035156 48.515625 -57.664062 51.078125 -55.96875 L 47.46875 -49.328125 C 42.425781 -52.816406 36.414062 -54.5625 29.4375 -54.5625 C 24.164062 -54.5625 20.191406 -53.628906 17.515625 -51.765625 C 14.835938 -49.910156 13.5 -47.46875 13.5 -44.4375 C 13.5 -42.113281 14.253906 -40.253906 15.765625 -38.859375 C 17.273438 -37.460938 19.15625 -36.429688 21.40625 -35.765625 C 23.65625 -35.109375 26.757812 -34.429688 30.71875 -33.734375 C 35.601562 -32.804688 39.519531 -31.875 42.46875 -30.9375 C 45.414062 -30.007812 47.9375 -28.421875 50.03125 -26.171875 C 52.125 -23.921875 53.171875 -20.820312 53.171875 -16.875 C 53.171875 -11.519531 50.941406 -7.269531 46.484375 -4.125 C 42.023438 -0.988281 35.835938 0.578125 27.921875 0.578125 Z M 27.921875 0.578125 "/></g></g></g><g fill="#e8dcc4" fill-opacity="1"><g transform="translate(248.160264, 110.976271)"><g><path d="M 11.515625 -61.203125 L 19.78125 -61.203125 L 19.78125 0 L 11.515625 0 Z M 15.703125 -74.578125 C 13.992188 -74.578125 12.554688 -75.15625 11.390625 -76.3125 C 10.234375 -77.476562 9.65625 -78.878906 9.65625 -80.515625 C 9.65625 -82.066406 10.234375 -83.421875 11.390625 -84.578125 C 12.554688 -85.742188 13.992188 -86.328125 15.703125 -86.328125 C 17.410156 -86.328125 18.84375 -85.765625 20 -84.640625 C 21.164062 -83.515625 21.75 -82.175781 21.75 -80.625 C 21.75 -78.914062 21.164062 -77.476562 20 -76.3125 C 18.84375 -75.15625 17.410156 -74.578125 15.703125 -74.578125 Z M 15.703125 -74.578125 "/></g></g></g><g fill="#e8dcc4" fill-opacity="1"><g transform="translate(279.456373, 110.976271)"><g><path d="M 36.875 0.578125 C 30.832031 0.578125 25.425781 -0.738281 20.65625 -3.375 C 15.882812 -6.007812 12.140625 -9.710938 9.421875 -14.484375 C 6.710938 -19.253906 5.359375 -24.625 5.359375 -30.59375 C 5.359375 -36.570312 6.710938 -41.925781 9.421875 -46.65625 C 12.140625 -51.382812 15.882812 -55.066406 20.65625 -57.703125 C 25.425781 -60.335938 30.832031 -61.65625 36.875 -61.65625 C 42.15625 -61.65625 46.867188 -60.628906 51.015625 -58.578125 C 55.160156 -56.523438 58.4375 -53.519531 60.84375 -49.5625 L 54.6875 -45.375 C 52.664062 -48.394531 50.101562 -50.660156 47 -52.171875 C 43.894531 -53.691406 40.519531 -54.453125 36.875 -54.453125 C 32.457031 -54.453125 28.484375 -53.460938 24.953125 -51.484375 C 21.421875 -49.503906 18.664062 -46.691406 16.6875 -43.046875 C 14.71875 -39.398438 13.734375 -35.25 13.734375 -30.59375 C 13.734375 -25.863281 14.71875 -21.695312 16.6875 -18.09375 C 18.664062 -14.488281 21.421875 -11.695312 24.953125 -9.71875 C 28.484375 -7.738281 32.457031 -6.75 36.875 -6.75 C 40.519531 -6.75 43.894531 -7.484375 47 -8.953125 C 50.101562 -10.429688 52.664062 -12.679688 54.6875 -15.703125 L 60.84375 -11.515625 C 58.4375 -7.554688 55.140625 -4.550781 50.953125 -2.5 C 46.765625 -0.445312 42.070312 0.578125 36.875 0.578125 Z M 36.875 0.578125 "/></g></g></g><g fill="#e8dcc4" fill-opacity="1"><g transform="translate(344.957163, 110.976271)"><g/></g></g><g fill="#e8dcc4" fill-opacity="1"><g transform="translate(375.438908, 110.976271)"><g><path d="M 13.265625 -81.4375 L 21.875 -81.4375 L 21.875 -7.453125 L 67.484375 -7.453125 L 67.484375 0 L 13.265625 0 Z M 13.265625 -81.4375 "/></g></g></g><g fill="#e8dcc4" fill-opacity="1"><g transform="translate(443.96455, 110.976271)"><g><path d="M 32.921875 -61.65625 C 40.910156 -61.65625 47.035156 -59.65625 51.296875 -55.65625 C 55.566406 -51.664062 57.703125 -45.753906 57.703125 -37.921875 L 57.703125 0 L 49.796875 0 L 49.796875 -9.546875 C 47.929688 -6.359375 45.195312 -3.875 41.59375 -2.09375 C 37.988281 -0.3125 33.703125 0.578125 28.734375 0.578125 C 21.910156 0.578125 16.484375 -1.046875 12.453125 -4.296875 C 8.421875 -7.554688 6.40625 -11.863281 6.40625 -17.21875 C 6.40625 -22.414062 8.285156 -26.601562 12.046875 -29.78125 C 15.804688 -32.957031 21.796875 -34.546875 30.015625 -34.546875 L 49.453125 -34.546875 L 49.453125 -38.28125 C 49.453125 -43.550781 47.976562 -47.5625 45.03125 -50.3125 C 42.082031 -53.070312 37.773438 -54.453125 32.109375 -54.453125 C 28.234375 -54.453125 24.507812 -53.8125 20.9375 -52.53125 C 17.375 -51.25 14.3125 -49.484375 11.75 -47.234375 L 8.03125 -53.40625 C 11.132812 -56.039062 14.859375 -58.070312 19.203125 -59.5 C 23.546875 -60.9375 28.117188 -61.65625 32.921875 -61.65625 Z M 30.015625 -5.9375 C 34.671875 -5.9375 38.664062 -7 42 -9.125 C 45.332031 -11.257812 47.816406 -14.34375 49.453125 -18.375 L 49.453125 -28.390625 L 30.25 -28.390625 C 19.78125 -28.390625 14.546875 -24.742188 14.546875 -17.453125 C 14.546875 -13.878906 15.898438 -11.066406 18.609375 -9.015625 C 21.328125 -6.960938 25.128906 -5.9375 30.015625 -5.9375 Z M 30.015625 -5.9375 "/></g></g></g><g fill="#e8dcc4" fill-opacity="1"><g transform="translate(512.606604, 110.976271)"><g><path d="M 43.046875 -61.65625 C 48.785156 -61.65625 53.984375 -60.351562 58.640625 -57.75 C 63.296875 -55.15625 66.941406 -51.492188 69.578125 -46.765625 C 72.210938 -42.035156 73.53125 -36.644531 73.53125 -30.59375 C 73.53125 -24.550781 72.210938 -19.160156 69.578125 -14.421875 C 66.941406 -9.691406 63.296875 -6.007812 58.640625 -3.375 C 53.984375 -0.738281 48.785156 0.578125 43.046875 0.578125 C 37.929688 0.578125 33.335938 -0.503906 29.265625 -2.671875 C 25.191406 -4.847656 21.910156 -7.988281 19.421875 -12.09375 L 19.421875 0 L 11.515625 0 L 11.515625 -86.328125 L 19.78125 -86.328125 L 19.78125 -49.5625 C 22.34375 -53.519531 25.617188 -56.523438 29.609375 -58.578125 C 33.597656 -60.628906 38.078125 -61.65625 43.046875 -61.65625 Z M 42.46875 -6.75 C 46.726562 -6.75 50.601562 -7.738281 54.09375 -9.71875 C 57.582031 -11.695312 60.316406 -14.507812 62.296875 -18.15625 C 64.273438 -21.800781 65.265625 -25.945312 65.265625 -30.59375 C 65.265625 -35.25 64.273438 -39.398438 62.296875 -43.046875 C 60.316406 -46.691406 57.582031 -49.503906 54.09375 -51.484375 C 50.601562 -53.460938 46.726562 -54.453125 42.46875 -54.453125 C 38.125 -54.453125 34.222656 -53.460938 30.765625 -51.484375 C 27.316406 -49.503906 24.601562 -46.691406 22.625 -43.046875 C 20.644531 -39.398438 19.65625 -35.25 19.65625 -30.59375 C 19.65625 -25.945312 20.644531 -21.800781 22.625 -18.15625 C 24.601562 -14.507812 27.316406 -11.695312 30.765625 -9.71875 C 34.222656 -7.738281 38.125 -6.75 42.46875 -6.75 Z M 42.46875 -6.75 "/></g></g></g></g></g></g></g></g></svg>